<svg width="19" height="19" viewBox="0 0 19 19" fill="none" xmlns="http://www.w3.org/2000/svg">
<path d="M18.9944 4.98398C18.9381 4.91632 18.9099 4.82611 18.9099 4.74154C18.0765 3.27003 18.0258 1.47151 17.1924 0C14.8441 1.31929 13.2392 3.67033 11.7075 5.81276C10.7839 7.10386 9.95614 8.42878 9.19591 9.82136C8.43005 11.2196 7.68672 12.6347 6.83076 13.9822C6.70688 14.1739 6.38589 14.2641 6.25074 14.0217C5.84529 13.2718 5.38915 12.5445 4.86544 11.868C4.41494 11.2872 3.90249 10.7685 3.44072 10.1991C2.72555 9.31395 1.95969 8.25401 0.968583 7.63947C0.60818 8.82344 0.185833 9.99614 0 11.2252C1.3853 12.1217 2.44398 13.4184 3.46325 14.6982C4.65708 16.1979 5.89034 17.63 7.23059 19C8.09781 17.8668 8.69472 16.5475 9.41553 15.3184C10.2659 13.8694 11.257 12.5332 12.31 11.2252C13.3631 9.91721 14.5794 8.76143 15.8014 7.62255C16.3758 7.08694 17.0516 6.64718 17.6654 6.15668C18.1271 5.78457 18.5777 5.40119 19 4.98961C19 4.99525 19 4.98961 18.9944 4.98398Z" fill="#E86741"/>
</svg>
