<svg width="252" height="252" viewBox="0 0 252 252" fill="none" xmlns="http://www.w3.org/2000/svg">
<g clip-path="url(#clip0_28_125)">
<path d="M199.292 123.962C184.499 107.526 157.554 123.187 164.283 144.148C123.224 161.491 168.5 214.945 192.424 177.613C196.065 177.525 199.607 176.419 202.651 174.421C205.695 172.422 208.119 169.611 209.647 166.306C243.792 163.117 231.089 110.996 199.292 123.962ZM215.266 158.867C212.187 161.296 206.628 158.736 204.798 162.476C203.012 171.622 193.18 169.926 187.858 173.445C167.568 205.756 132.783 158.727 171.029 147.526C163.451 129.981 182.259 113.315 196.064 129.383C196.486 130.001 197.129 130.433 197.86 130.593C198.592 130.753 199.356 130.627 199.998 130.241C219.737 119.575 235.129 148.374 215.266 158.867Z" fill="#4D4D4D" fill-opacity="0.3"/>
<path d="M137.468 137.601L152.905 130.241C155.321 129.057 157.252 127.072 158.369 124.623C159.485 122.175 159.718 119.416 159.028 116.815C158.338 114.214 156.768 111.933 154.585 110.36C152.401 108.788 149.74 108.021 147.055 108.19L149.995 99.1724C163.798 89.2578 188.134 83.9192 195.408 67.7652C184.108 43.6976 144.213 46.9619 127.055 64.3734C121.061 57.8263 111.659 63.2065 105.362 66.4376C102.236 65.8853 83.9332 56.5499 81.0105 58.8439C76.6806 61.031 64.8982 64.5693 70.6739 71.366L89.8424 91.9288L63.9957 111.068C59.9416 110.868 32.1221 99.0263 28.9369 103.366C24.6823 106.201 18.0517 112.375 24.3846 116.85L47.8011 132.644L46.2952 156.848C45.7503 164.819 59.0789 164.904 61.4614 158.684L70.4982 133.179C80.6363 129.79 90.9315 125.972 101.187 121.818L104.969 148.874C86.286 137.543 64.0013 157.913 73.7078 177.601C39.9594 201.484 94.2877 238.364 104.137 198.308C130.724 210.433 153.449 175.608 131.411 156.215L137.468 137.601ZM151.281 115.235C149.829 116.141 144.988 118.15 148.044 119.97C149.935 119.81 151.768 119.239 153.415 118.296C153.612 119 153.661 119.737 153.56 120.46C152.912 119.924 151.835 120.31 151.148 120.626C150.517 121.065 149.584 121.24 149.259 121.995C149.19 122.205 149.184 122.429 149.24 122.642C149.297 122.855 149.414 123.046 149.578 123.194C149.741 123.341 149.944 123.438 150.162 123.472C150.379 123.506 150.602 123.476 150.803 123.386C151.611 123.15 152.372 122.777 153.053 122.283C151.43 125.605 142.437 128.248 139.992 129.854L144.879 114.861C145.856 114.262 146.994 113.977 148.139 114.044C149.283 114.111 150.38 114.526 151.281 115.235L151.281 115.235ZM116.63 67.6083C117.511 67.1884 118.485 67.0005 119.459 67.0626C120.433 67.1246 121.375 67.4345 122.196 67.9629L117.811 71.2126L112.968 69.3547L116.63 67.6083ZM83.295 64.2989L112.191 75.3798L94.6213 88.3901L90.2854 83.7395C92.4645 82.6131 99.6702 79.242 95.6371 76.5264C92.5032 75.925 89.7995 79.0177 87.5363 80.7905L84.6437 77.688C86.4853 76.6863 89.0945 76.0482 89.828 73.8589C89.9183 73.5742 89.9424 73.2727 89.8984 72.9773C89.8545 72.6819 89.7436 72.4004 89.5744 72.1543C89.4051 71.9083 89.1819 71.7041 88.9217 71.5574C88.6616 71.4107 88.3714 71.3254 88.0732 71.3079C85.5883 71.1601 83.5771 73.1969 81.5038 74.3202L75.5871 67.974L83.295 64.2989ZM110.264 142.11C113.825 140.077 118.342 138.415 120.537 134.796C120.645 128.909 111.595 137.122 109.818 138.529C109.616 136.954 109.407 135.386 109.191 133.827C111.19 132.772 113.89 132.278 115.069 130.199C115.182 130.027 115.249 129.829 115.262 129.624C115.276 129.42 115.237 129.215 115.149 129.029C115.061 128.844 114.926 128.685 114.758 128.567C114.59 128.448 114.395 128.376 114.191 128.355C112.104 128.085 110.458 129.716 108.733 130.65C108.558 129.476 108.379 128.328 108.196 127.204C109.323 126.66 110.373 125.97 111.32 125.152C111.429 125.013 111.508 124.853 111.553 124.681C111.598 124.51 111.608 124.332 111.581 124.157C111.555 123.982 111.494 123.814 111.4 123.664C111.307 123.514 111.184 123.384 111.039 123.282C109.806 122.561 108.692 123.902 107.741 124.544C105.714 113.202 103.215 106.262 100.344 115.791C91.2246 119.513 82.0694 122.957 73.0134 126.079C73.182 125.718 73.2762 125.328 73.2904 124.93C73.3046 124.532 73.2385 124.136 73.096 123.764C72.9535 123.393 72.7376 123.054 72.4612 122.768C72.1847 122.482 71.8534 122.254 71.4871 122.099C71.1207 121.944 70.7268 121.864 70.329 121.864C69.9311 121.865 69.5373 121.945 69.1713 122.101C68.8053 122.257 68.4745 122.485 68.1986 122.772C67.9228 123.059 67.7076 123.398 67.5659 123.77L55.9473 156.668L52.1885 157.214C51.3805 154.783 56.5098 127.91 51.4903 128.014L27.6917 112.073L32.6358 107.929C34.3186 107.75 65.5677 119.099 66.3263 116.693L137.418 64.0468C150.716 49.319 195.39 60.178 188.225 70.0777C176.109 77.8637 163.752 85.0988 151.418 91.7082C148.139 87.3017 145.197 93.0708 144.737 96.252C144.736 96.2518 128.174 147.09 124.056 159.829L113.2 165.104C112.741 165.18 111.732 154.179 110.264 142.11ZM123.276 192.917C112.858 200.438 98.6604 184.279 98.2638 193.454C98.7238 196.908 97.9403 200.412 96.0534 203.34C94.1665 206.268 91.2993 208.43 87.9647 209.438C84.6301 210.446 81.0457 210.234 77.8526 208.841C74.6596 207.449 72.0663 204.965 70.5367 201.835C63.2056 183.972 83.3567 183.907 80.3704 177.26C69.003 160.121 91.6943 142.376 106.111 157.038C105.886 177.08 119.012 171.39 129.332 162.394C131.34 164.645 132.799 167.331 133.593 170.241C134.387 173.151 134.495 176.206 133.908 179.164C133.321 182.123 132.055 184.905 130.21 187.292C128.365 189.678 125.992 191.604 123.276 192.917L123.276 192.917Z" fill="#4D4D4D" fill-opacity="0.3"/>
<path d="M141.379 76.8027C146.968 73.8239 152.705 71.1309 158.567 68.734C159.11 68.3415 159.476 67.7504 159.586 67.0893C159.695 66.4282 159.539 65.7506 159.151 65.2041C157.491 63.0867 154.299 64.8157 152.343 65.5991C147.301 67.3343 142.739 70.235 139.029 74.0652C138.68 74.3672 138.403 74.7437 138.219 75.167C138.035 75.5902 137.948 76.0495 137.965 76.5107C138.409 78.038 140.368 77.3259 141.379 76.8027ZM130.462 83.708C131.102 83.9207 131.8 83.874 132.406 83.5778C133.012 83.2816 133.477 82.7596 133.703 82.1239C133.928 81.4882 133.895 80.7896 133.61 80.1781C133.326 79.5666 132.813 79.0909 132.182 78.8534C131.542 78.6407 130.844 78.6874 130.238 78.9836C129.633 79.2798 129.167 79.8018 128.942 80.4375C128.717 81.0732 128.75 81.7718 129.034 82.3833C129.318 82.9948 129.831 83.4704 130.462 83.708ZM118.255 91.495C118.77 91.6658 119.33 91.6281 119.817 91.39C120.304 91.152 120.678 90.7325 120.859 90.2218C121.04 89.711 121.013 89.1497 120.785 88.6583C120.556 88.1669 120.144 87.7847 119.637 87.5937C119.123 87.4229 118.562 87.4606 118.076 87.6987C117.589 87.9367 117.215 88.3562 117.034 88.8669C116.853 89.3777 116.88 89.939 117.108 90.4304C117.336 90.9218 117.748 91.304 118.255 91.495ZM188.533 129.532C186.893 128.862 185.095 128.68 183.354 129.009C181.614 129.337 180.005 130.162 178.723 131.384C178.004 132.045 178.536 133.537 179.609 133.242C181.649 132.641 183.832 132.754 185.799 133.56C187.767 134.366 189.401 135.818 190.433 137.677L190.259 137.412C191.107 139.396 193.616 141.039 194.855 138.469C195.949 134.478 191.954 130.842 188.533 129.532ZM172.303 153.505C168.834 153.703 165.584 155.261 163.258 157.841C160.932 160.421 159.718 163.815 159.879 167.285C160.01 167.795 160.189 168.293 160.411 168.77C160.592 169.128 160.873 169.426 161.22 169.627C161.567 169.828 161.964 169.923 162.365 169.903C162.765 169.882 163.151 169.745 163.475 169.509C163.799 169.273 164.047 168.948 164.19 168.573C164.571 166.223 165.202 163.92 166.074 161.703C167.552 159.098 169.938 157.13 172.777 156.175C173.12 156.101 173.422 155.896 173.617 155.605C173.813 155.313 173.888 154.957 173.827 154.611C173.765 154.265 173.572 153.957 173.288 153.751C173.004 153.544 172.65 153.456 172.303 153.505ZM84.0436 159.7C82.9048 160.854 82.008 162.224 81.4056 163.729C80.8033 165.234 80.5077 166.845 80.536 168.466C80.5644 170.087 80.9162 171.686 81.5707 173.17C82.2253 174.653 83.1695 175.991 84.3479 177.105C85.1165 177.764 86.0616 178.535 87.1438 178.22C90.8673 176.607 85.4477 173.455 84.9734 171.268C84.3182 169.599 84.0636 167.799 84.2302 166.014C84.3968 164.229 84.98 162.507 85.9328 160.988C86.0125 160.743 86.0106 160.479 85.9274 160.235C85.8442 159.991 85.6842 159.781 85.4713 159.636C85.2584 159.491 85.0042 159.418 84.7468 159.43C84.4894 159.441 84.2426 159.536 84.0436 159.7ZM73.2974 190.409C70.5712 194.032 70.8821 201.433 75.8633 202.824C77.3864 202.847 77.6363 201.252 76.8354 200.197C75.7281 199.026 74.9684 197.57 74.6411 195.992C74.3137 194.415 74.4318 192.777 74.9819 191.262C75.4352 190.249 73.909 189.558 73.2974 190.409ZM128.929 171.491C126.242 171.563 126.815 175.361 125.738 177.13C125.029 179.234 123.904 181.174 122.431 182.835C120.959 184.497 119.168 185.846 117.164 186.803C116.877 186.951 116.652 187.195 116.529 187.493C116.405 187.791 116.391 188.123 116.49 188.43C116.588 188.738 116.793 189 117.066 189.17C117.34 189.341 117.666 189.409 117.985 189.362C121.765 188.747 125.175 186.732 127.537 183.717C128.831 182.275 129.775 180.555 130.295 178.689C130.816 176.824 130.9 174.863 130.54 172.96C130.461 172.576 130.263 172.227 129.974 171.963C129.684 171.699 129.318 171.534 128.929 171.491Z" fill="#4D4D4D" fill-opacity="0.3"/>
</g>
<defs>
<clipPath id="clip0_28_125">
<rect width="189" height="189" fill="white" transform="translate(0 81.3398) rotate(-25.491)"/>
</clipPath>
</defs>
</svg>
