<svg id="Layer_1" data-name="Layer 1" xmlns="http://www.w3.org/2000/svg" xmlns:xlink="http://www.w3.org/1999/xlink" viewBox="0 0 84.41 61.15"><defs><style>.cls-1{fill:url(#linear-gradient);}.cls-2{fill:url(#linear-gradient-2);}</style><linearGradient id="linear-gradient" x1="224.12" y1="304.1" x2="240.33" y2="296.07" gradientUnits="userSpaceOnUse"><stop offset="0" stop-color="#009ad8"/><stop offset="1" stop-color="#e86742"/></linearGradient><linearGradient id="linear-gradient-2" x1="229.24" y1="314.45" x2="245.46" y2="306.43" xlink:href="#linear-gradient"/></defs><path class="cls-1" d="M230.58,269.15,196.29,330.3H232.5s4.23.15,6-1.92l4.07-7s1.59-2.73-1-6.23l-3.11-4.56-5.28,9.12a5.34,5.34,0,0,1-3.36,1.91H213.8s-2.74.16-.72-4.07l21.82-37.65s1.2-1.2,0-3.84Z" transform="translate(-196.29 -269.15)"/><path class="cls-2" d="M238.74,283.54l15.1,26.13,11-19.18h-3.59L254.08,301,250,293.37s-.93-2.41,1.19-5.76l4.32-6.23H280.7l-26.14,46.76-15.82-26.62L231.54,314s-1.2,3.12-4.31,2.88h-7.92Z" transform="translate(-196.29 -269.15)"/></svg>